HIERARCHY
ROOT Haolin_V1:Solving:Hips
{
	OFFSET 0.000000 0.000000 0.000000
	CHANNELS 6 Xposition Yposition Zposition Xrotation Yrotation Zrotation
	JOINT Haolin_V1:Solving:Spine
	{
		OFFSET 0.000000 -12.731938 2.520517
		CHANNELS 6 Xposition Yposition Zposition Xrotation Yrotation Zrotation
		JOINT Haolin_V1:Solving:Spine1
		{
			OFFSET 0.000000 -8.486854 1.496462
			CHANNELS 6 Xposition Yposition Zposition Xrotation Yrotation Zrotation
			JOINT Haolin_V1:Solving:Spine2
			{
				OFFSET 0.000000 -8.584984 0.751091
				CHANNELS 6 Xposition Yposition Zposition Xrotation Yrotation Zrotation
				JOINT Haolin_V1:Solving:Spine3
				{
					OFFSET 0.000000 -8.617775 0.000000
					CHANNELS 6 Xposition Yposition Zposition Xrotation Yrotation Zrotation
					JOINT Haolin_V1:Solving:Neck
					{
						OFFSET 0.000000 -11.080002 -1.107998
						CHANNELS 6 Xposition Yposition Zposition Xrotation Yrotation Zrotation
						JOINT Haolin_V1:Solving:Neck1
						{
							OFFSET 0.000000 -8.314011 -0.727381
							CHANNELS 6 Xposition Yposition Zposition Xrotation Yrotation Zrotation
							JOINT Haolin_V1:Solving:Head
							{
								OFFSET 0.000000 -8.218975 -1.449226
								CHANNELS 6 Xposition Yposition Zposition Xrotation Yrotation Zrotation
								JOINT Haolin_V1:Solving:HeadEnd
								{
									OFFSET 0.000000 -9.728081 0.000002
									CHANNELS 6 Xposition Yposition Zposition Xrotation Yrotation Zrotation
									End Site
									{
										OFFSET 0.000000 -9.728081 0.000002
									}
								}
							}
						}
					}
					JOINT Haolin_V1:Solving:RightShoulder
					{
						OFFSET 0.000000 -7.914288 -5.288076
						CHANNELS 6 Xposition Yposition Zposition Xrotation Yrotation Zrotation
						JOINT Haolin_V1:Solving:RightArm
						{
							OFFSET -20.201836 -0.000008 0.000000
							CHANNELS 6 Xposition Yposition Zposition Xrotation Yrotation Zrotation
							JOINT Haolin_V1:Solving:RightForeArm
							{
								OFFSET -29.446457 -0.000008 0.000000
								CHANNELS 6 Xposition Yposition Zposition Xrotation Yrotation Zrotation
								JOINT Haolin_V1:Solving:RightHand
								{
									OFFSET -23.111885 -0.000008 0.000000
									CHANNELS 6 Xposition Yposition Zposition Xrotation Yrotation Zrotation
									JOINT Haolin_V1:Solving:RightHandThumb1
									{
										OFFSET -3.824379 2.925484 -2.843767
										CHANNELS 6 Xposition Yposition Zposition Xrotation Yrotation Zrotation
										End Site
										{
											OFFSET -5.557076 0.000000 -5.608460
										}
									}
									JOINT Haolin_V1:Solving:RightHandMiddle1
									{
										OFFSET -10.198334 -0.000004 0.065374
										CHANNELS 6 Xposition Yposition Zposition Xrotation Yrotation Zrotation
										End Site
										{
											OFFSET -7.895309 -0.000004 0.000000
										}
									}
								}
							}
						}
					}
					JOINT Haolin_V1:Solving:LeftShoulder
					{
						OFFSET 0.000000 -7.914288 -5.288076
						CHANNELS 6 Xposition Yposition Zposition Xrotation Yrotation Zrotation
						JOINT Haolin_V1:Solving:LeftArm
						{
							OFFSET 20.201836 -0.000008 0.000000
							CHANNELS 6 Xposition Yposition Zposition Xrotation Yrotation Zrotation
							JOINT Haolin_V1:Solving:LeftForeArm
							{
								OFFSET 29.446457 -0.000008 0.000000
								CHANNELS 6 Xposition Yposition Zposition Xrotation Yrotation Zrotation
								JOINT Haolin_V1:Solving:LeftHand
								{
									OFFSET 23.111885 -0.000008 0.000000
									CHANNELS 6 Xposition Yposition Zposition Xrotation Yrotation Zrotation
									JOINT Haolin_V1:Solving:LeftHandThumb1
									{
										OFFSET 3.824379 2.925484 -2.843767
										CHANNELS 6 Xposition Yposition Zposition Xrotation Yrotation Zrotation
										End Site
										{
											OFFSET 5.557076 0.000000 -5.608460
										}
									}
									JOINT Haolin_V1:Solving:LeftHandMiddle1
									{
										OFFSET 10.198334 -0.000004 0.065374
										CHANNELS 6 Xposition Yposition Zposition Xrotation Yrotation Zrotation
										End Site
										{
											OFFSET 7.895309 -0.000004 0.000000
										}
									}
								}
							}
						}
					}
				}
			}
		}
	}
	JOINT Haolin_V1:Solving:RightUpLeg
	{
		OFFSET -10.695510 0.000000 0.000000
		CHANNELS 6 Xposition Yposition Zposition Xrotation Yrotation Zrotation
		JOINT Haolin_V1:Solving:RightLeg
		{
			OFFSET 0.000000 46.236332 -0.000006
			CHANNELS 6 Xposition Yposition Zposition Xrotation Yrotation Zrotation
			JOINT Haolin_V1:Solving:RightFoot
			{
				OFFSET 0.000000 41.248135 -0.000006
				CHANNELS 6 Xposition Yposition Zposition Xrotation Yrotation Zrotation
				JOINT Haolin_V1:Solving:RightForeFoot
				{
					OFFSET 0.000000 3.207336 -0.000000
					CHANNELS 6 Xposition Yposition Zposition Xrotation Yrotation Zrotation
					JOINT Haolin_V1:Solving:RightToeBase
					{
						OFFSET 0.000000 0.000000 -12.560947
						CHANNELS 6 Xposition Yposition Zposition Xrotation Yrotation Zrotation
						JOINT Haolin_V1:Solving:RightToeBaseEnd
						{
							OFFSET 0.000000 0.000000 -3.517768
							CHANNELS 6 Xposition Yposition Zposition Xrotation Yrotation Zrotation
							End Site
							{
								OFFSET 0.000000 -3.517769 0.000004
							}
						}
					}
				}
			}
		}
	}
	JOINT Haolin_V1:Solving:LeftUpLeg
	{
		OFFSET 10.695510 0.000000 0.000000
		CHANNELS 6 Xposition Yposition Zposition Xrotation Yrotation Zrotation
		JOINT Haolin_V1:Solving:LeftLeg
		{
			OFFSET 0.000000 46.236332 -0.000006
			CHANNELS 6 Xposition Yposition Zposition Xrotation Yrotation Zrotation
			JOINT Haolin_V1:Solving:LeftFoot
			{
				OFFSET 0.000000 41.248135 -0.000006
				CHANNELS 6 Xposition Yposition Zposition Xrotation Yrotation Zrotation
				JOINT Haolin_V1:Solving:LeftForeFoot
				{
					OFFSET 0.000000 3.207336 -0.000000
					CHANNELS 6 Xposition Yposition Zposition Xrotation Yrotation Zrotation
					JOINT Haolin_V1:Solving:LeftToeBase
					{
						OFFSET 0.000000 0.000000 -12.560947
						CHANNELS 6 Xposition Yposition Zposition Xrotation Yrotation Zrotation
						JOINT Haolin_V1:Solving:LeftToeBaseEnd
						{
							OFFSET 0.000000 0.000000 -3.901837
							CHANNELS 6 Xposition Yposition Zposition Xrotation Yrotation Zrotation
							End Site
							{
								OFFSET 0.000000 -3.901840 0.000004
							}
						}
					}
				}
			}
		}
	}
}
MOTION
Frames: 4
Frame Time: 0.041667
-17.987846 -144.001038 -81.490685 118.273400 0.506938 -10.395678 0.000000 -12.731941 2.520504 19.070001 -0.216652 -0.436980 0.000001 -8.486859 1.496444 17.362937 0.056080 -0.503882 -0.000000 -8.584988 0.751081 -1.394732 2.662452 4.912605 -0.000002 -8.617766 0.000002 -9.077435 0.148299 0.644551 0.000003 -11.080012 -1.108032 -17.687243 -0.285828 -2.143543 -0.000005 -8.314006 -0.727348 11.283503 -6.419665 3.974700 0.000005 -8.218984 -1.449227 2.589687 -0.511264 0.488511 0.000003 -9.728088 -0.000029 -0.000007 0.000001 0.000001 0.000005 -7.914295 -5.288110 0.000009 2.656047 16.222823 -20.201822 -0.000003 0.000009 -65.683928 -18.975206 -94.754354 -29.446434 -0.000008 -0.000001 -16.291603 -11.820791 -3.426203 -23.111904 -0.000010 -0.000011 0.513111 -3.115271 9.357974 -3.824390 2.925485 -2.843750 0.000004 0.000002 -0.000004 -10.198335 0.000006 0.065376 -0.000001 0.000000 -0.000001 0.000002 -7.914299 -5.288102 0.000013 2.435831 -21.619055 20.201815 0.000001 0.000004 -59.717532 13.807069 83.042581 29.446444 -0.000003 -0.000010 -23.239734 4.539384 1.946515 23.111891 -0.000013 0.000014 -0.514442 6.999292 4.214277 3.824393 2.925482 -2.843742 0.000006 -0.000007 0.000008 10.198328 -0.000002 0.065401 -0.000001 0.000001 0.000002 -10.695510 0.000005 -0.000002 -75.764679 9.290393 18.177582 -0.000013 46.236332 -0.000017 60.608585 0.000004 0.000002 -0.000003 41.248146 -0.000008 -20.079774 5.796884 -4.350421 -0.000018 3.207329 0.000020 0.000000 -0.000005 -0.000001 -0.000010 0.000004 -12.560935 13.695073 -0.000004 0.000001 0.000002 0.000000 -3.517776 0.000001 -0.000006 0.000000 10.695507 -0.000008 -0.000005 -72.090762 -15.328891 -10.937897 0.000001 46.236320 -0.000013 56.170048 0.000000 0.000005 0.000003 41.248135 -0.000002 -10.439302 -17.349580 2.563655 -0.000003 3.207336 0.000006 0.000000 -0.000000 -0.000000 -0.000004 -0.000002 -12.560939 2.546233 0.000005 -0.000000 0.000003 -0.000008 -3.901835 0.000000 0.000002 0.000000 
-17.928146 -143.984589 -81.481033 118.250847 0.536834 -10.344932 -0.000001 -12.731942 2.520506 19.093160 -0.229285 -0.437883 0.000002 -8.486851 1.496469 17.358243 0.058941 -0.507473 -0.000003 -8.585005 0.751097 -1.466743 2.677140 4.920029 -0.000003 -8.617752 0.000011 -9.107597 0.170242 0.654494 -0.000007 -11.079990 -1.108010 -17.766826 -0.272229 -2.206537 -0.000001 -8.314031 -0.727348 11.435945 -6.379828 4.038219 0.000001 -8.218982 -1.449228 2.638002 -0.509825 0.500575 -0.000001 -9.728065 -0.000027 -0.000000 0.000000 -0.000000 -0.000005 -7.914268 -5.288086 -0.000002 2.585354 16.213812 -20.201828 -0.000015 -0.000004 -65.569290 -19.000369 -94.731637 -29.446466 -0.000012 -0.000009 -16.320588 -11.753128 -3.413301 -23.111897 -0.000005 -0.000010 0.539539 -3.255610 9.415283 -3.824406 2.925486 -2.843772 0.000000 -0.000010 0.000003 -10.198355 -0.000003 0.065367 -0.000003 -0.000009 0.000002 -0.000006 -7.914280 -5.288094 0.000013 2.593426 -21.470797 20.201822 -0.000033 0.000003 -59.793429 12.848995 83.070912 29.446476 0.000003 -0.000012 -22.049877 4.405783 1.782175 23.111881 -0.000007 0.000003 -0.478378 7.320795 3.748974 3.824366 2.925479 -2.843742 -0.000001 0.000007 0.000003 10.198335 -0.000006 0.065384 -0.000003 -0.000001 0.000001 -10.695507 0.000005 -0.000004 -75.701971 9.293992 18.168725 0.000002 46.236340 -0.000009 60.575431 0.000002 0.000000 -0.000004 41.248138 -0.000022 -20.134424 5.787935 -4.463581 0.000006 3.207336 0.000010 -0.000000 0.000001 -0.000000 0.000005 -0.000009 -12.560966 13.804390 -0.000006 0.000003 0.000001 0.000015 -3.517764 -0.000001 0.000006 0.000000 10.695505 -0.000007 -0.000008 -72.068065 -15.905866 -10.827741 -0.000004 46.236378 -0.000029 56.118754 0.000001 0.000006 0.000006 41.248123 -0.000005 -10.935311 -17.319845 2.775832 -0.000004 3.207336 -0.000007 -0.000000 -0.000006 0.000000 0.000006 -0.000010 -12.560962 2.243479 0.000005 0.000000 -0.000003 -0.000000 -3.901824 -0.000000 -0.000001 0.000000 
-17.859858 -143.974030 -81.465996 118.250123 0.595906 -10.290127 0.000000 -12.731940 2.520501 19.095886 -0.254866 -0.430630 0.000002 -8.486855 1.496444 17.343321 0.063430 -0.493993 -0.000000 -8.584991 0.751068 -1.491547 2.686283 4.911843 -0.000004 -8.617750 -0.000034 -9.113994 0.177486 0.673896 -0.000002 -11.079979 -1.107982 -17.740460 -0.291165 -2.164702 -0.000002 -8.314002 -0.727334 11.335517 -6.341501 3.943165 0.000002 -8.218986 -1.449264 2.660280 -0.505856 0.488139 -0.000006 -9.728073 -0.000041 0.000003 0.000001 -0.000000 -0.000002 -7.914280 -5.288054 0.000008 2.561651 16.174882 -20.201817 -0.000005 -0.000001 -65.537318 -19.053624 -94.710292 -29.446444 -0.000027 -0.000007 -16.338811 -11.714098 -3.406155 -23.111897 -0.000013 0.000005 0.542063 -3.262099 9.440097 -3.824396 2.925481 -2.843767 0.000001 -0.000007 -0.000003 -10.198369 -0.000004 0.065376 -0.000001 -0.000006 0.000004 -0.000005 -7.914284 -5.288046 0.000012 2.595367 -21.415782 20.201818 -0.000018 -0.000008 -59.597505 13.511050 83.015916 29.446449 0.000008 -0.000004 -22.619336 4.620112 1.922184 23.111889 -0.000020 -0.000011 -0.461815 7.297172 3.631157 3.824378 2.925482 -2.843765 0.000006 -0.000012 0.000007 10.198317 -0.000007 0.065370 0.000002 0.000002 -0.000002 -10.695509 0.000001 0.000033 -75.676146 9.248952 18.110115 -0.000006 46.236347 -0.000006 60.585356 0.000004 -0.000001 -0.000002 41.248138 0.000001 -20.088213 5.818428 -4.490776 -0.000013 3.207336 0.000011 0.000000 0.000001 -0.000000 -0.000006 0.000002 -12.560952 13.774414 -0.000005 0.000001 -0.000018 -0.000001 -3.517785 -0.000002 -0.000008 0.000003 10.695511 -0.000008 0.000000 -72.034003 -16.498740 -10.757665 0.000005 46.236351 -0.000013 55.995902 0.000001 0.000005 0.000007 41.248142 0.000020 -11.379047 -17.175090 3.291984 0.000000 3.207329 -0.000019 -0.000000 -0.000002 -0.000000 -0.000001 0.000001 -12.560951 3.137236 0.000003 0.000000 0.000005 0.000000 -3.901849 0.000000 -0.000003 -0.000000 
-17.788408 -143.978134 -81.464851 118.257089 0.612362 -10.189243 0.000001 -12.731937 2.520509 19.087508 -0.220527 -0.450273 -0.000001 -8.486846 1.496514 17.314685 0.065735 -0.497164 0.000001 -8.584999 0.751103 -1.481802 2.660230 4.891036 0.000003 -8.617794 0.000005 -9.104488 0.174245 0.703355 -0.000002 -11.079986 -1.108008 -17.728195 -0.254779 -2.216382 0.000000 -8.314035 -0.727401 11.264907 -6.274925 3.959668 -0.000004 -8.218987 -1.449209 2.655285 -0.503809 0.503933 0.000002 -9.728081 0.000005 -0.000001 -0.000000 0.000000 0.000003 -7.914280 -5.288088 -0.000003 2.521915 16.183022 -20.201832 -0.000024 -0.000000 -65.507716 -19.043483 -94.666695 -29.446466 -0.000021 -0.000004 -16.276933 -11.728904 -3.396783 -23.111893 -0.000029 -0.000005 0.529479 -3.168540 9.491899 -3.824381 2.925488 -2.843768 0.000004 -0.000000 -0.000003 -10.198326 0.000006 0.065367 -0.000003 -0.000001 0.000000 -0.000001 -7.914284 -5.288088 0.000007 2.580424 -21.430012 20.201830 -0.000013 0.000004 -59.109898 15.707690 82.785950 29.446455 -0.000013 -0.000006 -24.914891 5.011364 2.323526 23.111881 -0.000007 -0.000003 -0.467570 7.089169 3.783294 3.824358 2.925477 -2.843752 0.000007 0.000009 0.000003 10.198295 -0.000010 0.065379 0.000001 -0.000002 -0.000001 -10.695507 0.000007 0.000007 -75.670245 9.232180 18.068779 0.000010 46.236317 -0.000002 60.613312 0.000001 0.000001 -0.000020 41.248135 -0.000002 -20.033872 5.865405 -4.577509 0.000004 3.207336 0.000010 0.000000 -0.000000 -0.000002 -0.000003 -0.000004 -12.560947 13.549115 -0.000005 -0.000000 -0.000010 0.000015 -3.517772 -0.000002 -0.000002 0.000001 10.695504 0.000020 0.000020 -72.157178 -17.015226 -10.682346 -0.000001 46.236332 -0.000033 56.132837 0.000003 0.000002 0.000005 41.248135 -0.000009 -12.112622 -17.060440 1.725692 0.000009 3.207344 -0.000012 -0.000000 0.000008 0.000000 0.000010 0.000015 -12.560957 7.170798 0.000011 0.000000 0.000003 -0.000000 -3.901831 0.000000 0.000004 -0.000000 
